<svg xmlns="http://www.w3.org/2000/svg" width="61.008" height="56" viewBox="0 0 61.008 56">
  <g id="ic_db_survey" transform="translate(-813 -237)">
    <g id="ic_survey" transform="translate(-3428 -1224.13)">
      <path id="Subtraction_19" data-name="Subtraction 19" d="M44,56H5a5.005,5.005,0,0,1-5-5V5A5.006,5.006,0,0,1,5,0H44a5.006,5.006,0,0,1,5,5V51A5.006,5.006,0,0,1,44,56ZM14.7,28.8v9.6H34.3V28.8Zm4.064-9.739h0L16.331,21.3l4.8,5.113,10.11-8.462-2.076-2.461L21.423,22l-2.659-2.939Z" transform="translate(4241 1461.13)" fill="#56bb76"/>
    </g>
    <g id="Group_2960" data-name="Group 2960" transform="translate(-308 6)">
      <circle id="Ellipse_171" data-name="Ellipse 171" cx="10.5" cy="10.5" r="10.5" transform="translate(1160 266)" fill="#fff"/>
      <path id="Path_635" data-name="Path 635" d="M-12540.187,750.136l4.689-6.743,5.545,6.743,4.952-6.743" transform="translate(13706 -471)" fill="none" stroke="#5faa4e" stroke-width="2.5" opacity="0.372"/>
    </g>
  </g>
</svg>
