<svg xmlns="http://www.w3.org/2000/svg" width="101" height="65.042" viewBox="0 0 101 65.042">
  <g id="ic_db_coupon1" transform="translate(-190 -230)">
    <g id="Rectangle_1125" data-name="Rectangle 1125" transform="translate(204 250)" fill="#c4d8ff" stroke="#fff" stroke-width="3">
      <rect width="84" height="42.042" rx="4" stroke="none"/>
      <rect x="-1.5" y="-1.5" width="87" height="45.042" rx="5.5" fill="none"/>
    </g>
    <circle id="Ellipse_158" data-name="Ellipse 158" cx="4.204" cy="4.204" r="4.204" transform="translate(256.41 286.436)" fill="#fff"/>
    <g id="Group_613" data-name="Group 613" transform="translate(1 -6)">
      <g id="Rectangle_1126" data-name="Rectangle 1126" transform="translate(192 239)" fill="#3354b4" stroke="#fff" stroke-width="3">
        <rect width="84" height="45" rx="4" stroke="none"/>
        <rect x="-1.5" y="-1.5" width="87" height="48" rx="5.5" fill="none"/>
      </g>
      <circle id="Ellipse_160" data-name="Ellipse 160" cx="4.5" cy="4.5" r="4.5" transform="translate(244 237)" fill="#fff"/>
      <circle id="Ellipse_161" data-name="Ellipse 161" cx="4.5" cy="4.5" r="4.5" transform="translate(244 278)" fill="#fff"/>
      <g id="Group_612" data-name="Group 612" transform="translate(2.423 3.56)">
        <g id="Ellipse_162" data-name="Ellipse 162" transform="translate(205 249.629)" fill="none" stroke="#fff" stroke-width="3">
          <circle cx="2.339" cy="2.339" r="2.339" stroke="none"/>
          <circle cx="2.339" cy="2.339" r="3.839" fill="none"/>
        </g>
        <g id="Ellipse_163" data-name="Ellipse 163" transform="translate(216.696 261.325)" fill="none" stroke="#fff" stroke-width="3">
          <circle cx="2.339" cy="2.339" r="2.339" stroke="none"/>
          <circle cx="2.339" cy="2.339" r="3.839" fill="none"/>
        </g>
        <path id="Path_614" data-name="Path 614" d="M-12121.719-746.56l16.934-18.125" transform="translate(12326.938 1013)" fill="none" stroke="#fff" stroke-linecap="round" stroke-width="2.5"/>
      </g>
    </g>
  </g>
</svg>
