<svg xmlns="http://www.w3.org/2000/svg" width="56.507" height="55" viewBox="0 0 56.507 55">
  <g id="ic_db_memberactive" transform="translate(-1125.501 -232)">
    <g id="Group_641" data-name="Group 641" transform="translate(12646.001 5296)">
      <g id="Group_577" data-name="Group 577" transform="translate(-11517.5 -5061)">
        <g id="Union_5" data-name="Union 5" fill="#5faa4e">
          <path d="M 42.88050079345703 46.89060211181641 L 1.516501426696777 46.89060211181641 C -0.1467985510826111 46.89060211181641 -1.499998569488525 45.53739929199219 -1.499998569488525 43.87409973144531 C -1.499998569488525 41.12937927246094 -1.030478596687317 38.44026184082031 -0.104468546807766 35.88142013549805 C 0.7903214693069458 33.40885162353516 2.088661432266235 31.11628150939941 3.754501342773438 29.06740188598633 C 5.405511379241943 27.03675079345703 7.367311477661133 25.30656051635742 9.58540153503418 23.92488098144531 C 10.88631534576416 23.11452865600586 12.25383472442627 22.43785285949707 13.6748161315918 21.90021133422852 C 12.67405986785889 21.0590991973877 11.79779624938965 20.07010078430176 11.07697105407715 18.96016120910645 C 9.683071136474609 16.81380081176758 8.946301460266113 14.32133102416992 8.946301460266113 11.75220108032227 C 8.946301460266113 8.212381362915039 10.32487106323242 4.884420871734619 12.8280611038208 2.38136100769043 C 15.33112144470215 -0.1215689405798912 18.6589412689209 -1.499998927116394 22.19850158691406 -1.499998927116394 C 25.73841094970703 -1.499998927116394 29.06636238098145 -0.1215589419007301 31.56931114196777 2.381391048431396 C 34.07226181030273 4.884341239929199 35.45070266723633 8.21229076385498 35.45070266723633 11.75220108032227 C 35.45070266723633 14.32161140441895 34.71403121948242 16.81417083740234 33.32032012939453 18.96041107177734 C 32.59951782226562 20.07042121887207 31.72334671020508 21.05934906005859 30.7225170135498 21.90045166015625 C 32.14351272583008 22.43809127807617 33.51080322265625 23.11467933654785 34.81167984008789 23.9250316619873 C 37.02968978881836 25.30668067932129 38.99138259887695 27.0368709564209 40.64227294921875 29.06753158569336 C 42.30792999267578 31.11636161804199 43.60612106323242 33.40892028808594 44.50080108642578 35.88151168823242 C 45.42665100097656 38.44026947021484 45.89610290527344 41.12937164306641 45.89610290527344 43.87409973144531 C 45.89610290527344 45.53739929199219 44.54331207275391 46.89060211181641 42.88050079345703 46.89060211181641 Z" stroke="none"/>
          <path d="M 42.88050079345703 45.39060211181641 C 43.71750259399414 45.39060211181641 44.39610290527344 44.71200180053711 44.39610290527344 43.87409973144531 C 44.39610290527344 33.36551284790039 37.02445983886719 24.57856178283691 27.16918182373047 22.40373039245605 C 31.17546081542969 20.53140068054199 33.95070266723633 16.4659309387207 33.95070266723633 11.75220108032227 C 33.95070266723633 5.261401176452637 28.68930053710938 1.055908228408953e-06 22.19850158691406 1.055908228408953e-06 C 15.7086009979248 1.055908228408953e-06 10.44630146026611 5.261401176452637 10.44630146026611 11.75220108032227 C 10.44630146026611 16.46554183959961 13.22222137451172 20.53104019165039 17.22787094116211 22.4035701751709 C 7.372991561889648 24.57840156555176 1.452636752219405e-06 33.36551284790039 1.452636752219405e-06 43.87409973144531 C 1.452636752219405e-06 44.71200180053711 0.6786014437675476 45.39060211181641 1.516501426696777 45.39060211181641 L 42.88050079345703 45.39060211181641 M 42.88050079345703 48.39060211181641 L 1.516501426696777 48.39060211181641 C -0.973908543586731 48.39060211181641 -2.999998569488525 46.36450958251953 -2.999998569488525 43.87409973144531 C -2.999998569488525 40.9548225402832 -2.500358581542969 38.09395980834961 -1.514948606491089 35.37099075317383 C -0.5628185272216797 32.73995971679688 0.8185014724731445 30.30076026916504 2.590641498565674 28.12113189697266 C 4.346541404724121 25.96147155761719 6.433091640472412 24.12128067016602 8.79232120513916 22.65169143676758 C 9.523470878601074 22.19625091552734 10.2741870880127 21.78059577941895 11.04284191131592 21.40535545349121 C 10.59999084472656 20.8935489654541 10.19086074829102 20.34978103637695 9.818971633911133 19.77714157104492 C 8.266761779785156 17.38699150085449 7.446301460266113 14.61201095581055 7.446301460266113 11.75220108032227 C 7.446301460266113 7.811700820922852 8.980901718139648 4.107040882110596 11.76742172241211 1.320671081542969 C 14.55380153656006 -1.465558886528015 18.25829124450684 -2.999999046325684 22.19850158691406 -2.999999046325684 C 26.13907051086426 -2.999999046325684 29.84371185302734 -1.46553897857666 32.62997055053711 1.320731043815613 C 35.41624069213867 4.106991291046143 36.95070266723633 7.811631202697754 36.95070266723633 11.75220108032227 C 36.95070266723633 14.61227130889893 36.1303596496582 17.38732147216797 34.57835006713867 19.77734184265137 C 34.20646667480469 20.35002899169922 33.7973747253418 20.89377784729004 33.3545036315918 21.40561294555664 C 34.12299346923828 21.78079414367676 34.87379455566406 22.19649314880371 35.60478210449219 22.65184020996094 C 37.96393203735352 24.12142181396484 40.05038070678711 25.96161079406738 41.80617141723633 28.12131118774414 C 43.57812118530273 30.3008918762207 44.95928955078125 32.74008941650391 45.91130065917969 35.37113189697266 C 46.89654159545898 38.09402084350586 47.39610290527344 40.95483016967773 47.39610290527344 43.87409973144531 C 47.39610290527344 46.36450958251953 45.37041091918945 48.39060211181641 42.88050079345703 48.39060211181641 Z" stroke="none" fill="#fff"/>
        </g>
      </g>
    </g>
    <g id="Group_2960" data-name="Group 2960">
      <circle id="Ellipse_171" data-name="Ellipse 171" cx="10.5" cy="10.5" r="10.5" transform="translate(1160 266)" fill="#fff"/>
      <path id="Path_635" data-name="Path 635" d="M-12540.187,750.136l4.689-6.743,5.545,6.743,4.952-6.743" transform="translate(13706 -471)" fill="none" stroke="#5faa4e" stroke-width="2.5" opacity="0.372"/>
    </g>
  </g>
</svg>
