<svg xmlns="http://www.w3.org/2000/svg" width="78.498" height="51.391" viewBox="0 0 78.498 51.391">
  <g id="ic_db_newmember" transform="translate(11520.5 5064)">
    <g id="Group_578" data-name="Group 578" transform="translate(-11485.365 -5058.463)">
      <g id="Union_5" data-name="Union 5" transform="translate(0 0)" fill="#f9cad8">
        <path d="M 38.98530197143555 42.7677001953125 L 1.378800511360168 42.7677001953125 C -0.2085794359445572 42.7677001953125 -1.499999403953552 41.47628021240234 -1.499999403953552 39.88890075683594 C -1.499999403953552 37.37754058837891 -1.070409417152405 34.91701889038086 -0.2231494337320328 32.57569885253906 C 0.5955405831336975 30.31328964233398 1.78346061706543 28.21565055847168 3.307610511779785 26.34102058410645 C 5.660499095916748 23.44708824157715 8.735535621643066 21.21539497375488 12.17319107055664 19.86814880371094 C 11.32436370849609 19.12737655639648 10.57763385772705 18.26846694946289 9.956521034240723 17.31189918518066 C 8.675050735473633 15.33831024169922 7.997700691223145 13.04638004302979 7.997700691223145 10.68389987945557 C 7.997700691223145 7.429480075836182 9.265120506286621 4.369840145111084 11.56648063659668 2.068610191345215 C 13.86787033081055 -0.2326399087905884 16.92776107788086 -1.49999988079071 20.1825008392334 -1.49999988079071 C 23.43686103820801 -1.49999988079071 26.49649047851562 -0.2326298952102661 28.79776000976562 2.068639993667603 C 31.09903144836426 4.36991024017334 32.36640167236328 7.429540157318115 32.36640167236328 10.68389987945557 C 32.36640167236328 13.04656982421875 31.68906021118164 15.33860015869141 30.4076099395752 17.31219100952148 C 29.7864933013916 18.26879119873047 29.03982925415039 19.12763786315918 28.19096946716309 19.86839866638184 C 31.62856101989746 21.21563148498535 34.70330429077148 23.44724082946777 37.0560417175293 26.34115028381348 C 38.58005905151367 28.21574020385742 39.76787948608398 30.31336975097656 40.58650207519531 32.57577133178711 C 41.43366241455078 34.91704940795898 41.86320114135742 37.37754058837891 41.86320114135742 39.88890075683594 C 41.86320114135742 41.47628021240234 40.57218170166016 42.7677001953125 38.98530197143555 42.7677001953125 Z" stroke="none"/>
        <path d="M 38.98530197143555 41.2677001953125 C 39.74670028686523 41.2677001953125 40.36320114135742 40.65029907226562 40.36320114135742 39.88890075683594 C 40.36320114135742 30.33443069458008 33.66107940673828 22.34602928161621 24.70112991333008 20.36882019042969 C 28.34320068359375 18.6665096282959 30.86639976501465 14.97012042999268 30.86639976501465 10.68389987945557 C 30.86639976501465 4.783500194549561 26.08290100097656 9.765624753299562e-08 20.1825008392334 9.765624753299562e-08 C 14.28120040893555 9.765624753299562e-08 9.497700691223145 4.783500194549561 9.497700691223145 10.68389987945557 C 9.497700691223145 14.96975994110107 12.0209903717041 18.66613006591797 15.66290092468262 20.36862945556641 C 6.702950477600098 22.34584045410156 5.70678707845218e-07 30.33443069458008 5.70678707845218e-07 39.88890075683594 C 5.70678707845218e-07 40.65029907226562 0.617400586605072 41.2677001953125 1.378800511360168 41.2677001953125 L 38.98530197143555 41.2677001953125 M 38.98530197143555 44.2677001953125 L 1.378800511360168 44.2677001953125 C -1.035679459571838 44.2677001953125 -2.999999523162842 42.30337905883789 -2.999999523162842 39.88890075683594 C -2.999999523162842 37.2029914855957 -2.540289402008057 34.57073974609375 -1.633639454841614 32.06528854370117 C -0.7576094269752502 29.6444206237793 0.5132905840873718 27.4001293182373 2.143740653991699 25.39476013183594 C 3.759190559387207 23.40784072875977 5.678870677947998 21.7148494720459 7.849460601806641 20.36280059814453 C 8.422734260559082 20.00571441650391 9.009368896484375 19.67506980895996 9.607911109924316 19.37148666381836 C 9.283042907714844 18.97604751586914 8.979292869567871 18.56127738952637 8.698460578918457 18.12877082824707 C 7.258710384368896 15.91141986846924 6.497700691223145 13.33701992034912 6.497700691223145 10.68389987945557 C 6.497700691223145 7.02878999710083 7.921160697937012 3.592460155487061 10.50585079193115 1.007920145988464 C 13.09055042266846 -1.576629877090454 16.52712059020996 -3 20.1825008392334 -3 C 23.8375301361084 -3 27.27383995056152 -1.57660984992981 29.85842132568359 1.007980108261108 C 32.44301223754883 3.592560052871704 33.86640167236328 7.028870105743408 33.86640167236328 10.68389987945557 C 33.86640167236328 13.33720970153809 33.10540008544922 15.91170024871826 31.66567993164062 18.12904930114746 C 31.38484191894531 18.56157493591309 31.08112335205078 18.9763126373291 30.7562427520752 19.37176132202148 C 31.35477256774902 19.67534446716309 31.94121551513672 20.00589752197266 32.51446914672852 20.36297988891602 C 34.68498229980469 21.71500968933105 36.60457992553711 23.40800094604492 38.21992874145508 25.39492034912109 C 39.85026168823242 27.40026092529297 41.12105178833008 29.64454078674316 41.99700164794922 32.06539916992188 C 42.90354156494141 34.57080078125 43.36320114135742 37.20299911499023 43.36320114135742 39.88890075683594 C 43.36320114135742 42.30337905883789 41.3992805480957 44.2677001953125 38.98530197143555 44.2677001953125 Z" stroke="none" fill="#fff"/>
      </g>
    </g>
    <g id="Group_577" data-name="Group 577" transform="translate(-11517.5 -5061)">
      <g id="Union_5-2" data-name="Union 5" fill="#e94d7b">
        <path d="M 42.88050079345703 46.89060211181641 L 1.516501426696777 46.89060211181641 C -0.1467985510826111 46.89060211181641 -1.499998569488525 45.53739929199219 -1.499998569488525 43.87409973144531 C -1.499998569488525 41.12937927246094 -1.030478596687317 38.44026184082031 -0.104468546807766 35.88142013549805 C 0.7903214693069458 33.40885162353516 2.088661432266235 31.11628150939941 3.754501342773438 29.06740188598633 C 5.405511379241943 27.03675079345703 7.367311477661133 25.30656051635742 9.58540153503418 23.92488098144531 C 10.88631534576416 23.11452865600586 12.25383472442627 22.43785285949707 13.6748161315918 21.90021133422852 C 12.67405986785889 21.0590991973877 11.79779624938965 20.07010078430176 11.07697105407715 18.96016120910645 C 9.683071136474609 16.81380081176758 8.946301460266113 14.32133102416992 8.946301460266113 11.75220108032227 C 8.946301460266113 8.212381362915039 10.32487106323242 4.884420871734619 12.8280611038208 2.38136100769043 C 15.33112144470215 -0.1215689405798912 18.6589412689209 -1.499998927116394 22.19850158691406 -1.499998927116394 C 25.73841094970703 -1.499998927116394 29.06636238098145 -0.1215589419007301 31.56931114196777 2.381391048431396 C 34.07226181030273 4.884341239929199 35.45070266723633 8.21229076385498 35.45070266723633 11.75220108032227 C 35.45070266723633 14.32161140441895 34.71403121948242 16.81417083740234 33.32032012939453 18.96041107177734 C 32.59951782226562 20.07042121887207 31.72334671020508 21.05934906005859 30.7225170135498 21.90045166015625 C 32.14351272583008 22.43809127807617 33.51080322265625 23.11467933654785 34.81167984008789 23.9250316619873 C 37.02968978881836 25.30668067932129 38.99138259887695 27.0368709564209 40.64227294921875 29.06753158569336 C 42.30792999267578 31.11636161804199 43.60612106323242 33.40892028808594 44.50080108642578 35.88151168823242 C 45.42665100097656 38.44026947021484 45.89610290527344 41.12937164306641 45.89610290527344 43.87409973144531 C 45.89610290527344 45.53739929199219 44.54331207275391 46.89060211181641 42.88050079345703 46.89060211181641 Z" stroke="none"/>
        <path d="M 42.88050079345703 45.39060211181641 C 43.71750259399414 45.39060211181641 44.39610290527344 44.71200180053711 44.39610290527344 43.87409973144531 C 44.39610290527344 33.36551284790039 37.02445983886719 24.57856178283691 27.16918182373047 22.40373039245605 C 31.17546081542969 20.53140068054199 33.95070266723633 16.4659309387207 33.95070266723633 11.75220108032227 C 33.95070266723633 5.261401176452637 28.68930053710938 1.055908228408953e-06 22.19850158691406 1.055908228408953e-06 C 15.7086009979248 1.055908228408953e-06 10.44630146026611 5.261401176452637 10.44630146026611 11.75220108032227 C 10.44630146026611 16.46554183959961 13.22222137451172 20.53104019165039 17.22787094116211 22.4035701751709 C 7.372991561889648 24.57840156555176 1.452636752219405e-06 33.36551284790039 1.452636752219405e-06 43.87409973144531 C 1.452636752219405e-06 44.71200180053711 0.6786014437675476 45.39060211181641 1.516501426696777 45.39060211181641 L 42.88050079345703 45.39060211181641 M 42.88050079345703 48.39060211181641 L 1.516501426696777 48.39060211181641 C -0.973908543586731 48.39060211181641 -2.999998569488525 46.36450958251953 -2.999998569488525 43.87409973144531 C -2.999998569488525 40.9548225402832 -2.500358581542969 38.09395980834961 -1.514948606491089 35.37099075317383 C -0.5628185272216797 32.73995971679688 0.8185014724731445 30.30076026916504 2.590641498565674 28.12113189697266 C 4.346541404724121 25.96147155761719 6.433091640472412 24.12128067016602 8.79232120513916 22.65169143676758 C 9.523470878601074 22.19625091552734 10.2741870880127 21.78059577941895 11.04284191131592 21.40535545349121 C 10.59999084472656 20.8935489654541 10.19086074829102 20.34978103637695 9.818971633911133 19.77714157104492 C 8.266761779785156 17.38699150085449 7.446301460266113 14.61201095581055 7.446301460266113 11.75220108032227 C 7.446301460266113 7.811700820922852 8.980901718139648 4.107040882110596 11.76742172241211 1.320671081542969 C 14.55380153656006 -1.465558886528015 18.25829124450684 -2.999999046325684 22.19850158691406 -2.999999046325684 C 26.13907051086426 -2.999999046325684 29.84371185302734 -1.46553897857666 32.62997055053711 1.320731043815613 C 35.41624069213867 4.106991291046143 36.95070266723633 7.811631202697754 36.95070266723633 11.75220108032227 C 36.95070266723633 14.61227130889893 36.1303596496582 17.38732147216797 34.57835006713867 19.77734184265137 C 34.20646667480469 20.35002899169922 33.7973747253418 20.89377784729004 33.3545036315918 21.40561294555664 C 34.12299346923828 21.78079414367676 34.87379455566406 22.19649314880371 35.60478210449219 22.65184020996094 C 37.96393203735352 24.12142181396484 40.05038070678711 25.96161079406738 41.80617141723633 28.12131118774414 C 43.57812118530273 30.3008918762207 44.95928955078125 32.74008941650391 45.91130065917969 35.37113189697266 C 46.89654159545898 38.09402084350586 47.39610290527344 40.95483016967773 47.39610290527344 43.87409973144531 C 47.39610290527344 46.36450958251953 45.37041091918945 48.39060211181641 42.88050079345703 48.39060211181641 Z" stroke="none" fill="#fff"/>
      </g>
    </g>
  </g>
</svg>
