<svg xmlns="http://www.w3.org/2000/svg" width="88.746" height="66.001" viewBox="0 0 88.746 66.001">
  <g id="ic_db_coupon3" transform="translate(-817.5 -228.5)">
    <g id="Group_696" data-name="Group 696" transform="translate(335 22)">
      <g id="Group_618" data-name="Group 618" transform="translate(-16 -13)" opacity="0.189">
        <g id="Union_6" data-name="Union 6" transform="translate(-11822 -778)" fill="#d03a36">
          <path d="M 12385 1062.000732421875 L 12332.0009765625 1062.000732421875 C 12328.1396484375 1062.000732421875 12324.9990234375 1058.859619140625 12324.9990234375 1054.998779296875 L 12324.9990234375 1018.001525878906 C 12324.9990234375 1014.140625 12328.1396484375 1010.999572753906 12332.0009765625 1010.999572753906 L 12385 1010.999572753906 C 12386.0078125 1010.999572753906 12386.98046875 1011.209228515625 12387.890625 1011.622863769531 C 12388.4296875 1011.811645507812 12388.94140625 1012.09033203125 12389.4130859375 1012.452026367188 L 12389.5517578125 1012.558227539062 L 12389.662109375 1012.693420410156 L 12389.9697265625 1013.070861816406 C 12390.287109375 1013.390991210938 12390.5732421875 1013.74072265625 12390.8212890625 1014.112426757812 L 12405.3046875 1031.834350585938 C 12406.859375 1033.095947265625 12407.7470703125 1034.967895507812 12407.7470703125 1036.999877929688 C 12407.7470703125 1039.041015625 12406.8505859375 1040.920776367188 12405.283203125 1042.182495117188 L 12391.173828125 1058.301147460938 C 12390.6015625 1059.369140625 12389.7626953125 1060.272338867188 12388.7353515625 1060.921508789062 C 12387.619140625 1061.627563476562 12386.3271484375 1062.000732421875 12385 1062.000732421875 Z" stroke="none"/>
          <path d="M 12385 1060.500732421875 C 12387.158203125 1060.500732421875 12389.0244140625 1059.258544921875 12389.9248046875 1057.450073242188 L 12404.24609375 1041.089721679688 C 12406.9140625 1039.044067382812 12406.9140625 1034.955688476562 12404.24609375 1032.910034179688 L 12389.611328125 1015.002380371094 C 12389.3935546875 1014.66748046875 12389.1396484375 1014.357849121094 12388.8564453125 1014.078674316406 L 12388.5 1013.642272949219 C 12388.1259765625 1013.355407714844 12387.734375 1013.150146484375 12387.3330078125 1013.017456054688 C 12386.625 1012.685241699219 12385.833984375 1012.499572753906 12385 1012.499572753906 L 12332.0009765625 1012.499572753906 C 12328.9619140625 1012.499572753906 12326.4990234375 1014.962524414062 12326.4990234375 1018.001525878906 L 12326.4990234375 1054.998779296875 C 12326.4990234375 1058.037841796875 12328.9619140625 1060.500732421875 12332.0009765625 1060.500732421875 L 12385 1060.500732421875 M 12385 1063.500732421875 L 12332.0009765625 1063.500732421875 C 12327.3134765625 1063.500732421875 12323.4990234375 1059.686767578125 12323.4990234375 1054.998779296875 L 12323.4990234375 1018.001525878906 C 12323.4990234375 1013.313537597656 12327.3134765625 1009.499572753906 12332.0009765625 1009.499572753906 L 12385 1009.499572753906 C 12386.2021484375 1009.499572753906 12387.3623046875 1009.745300292969 12388.451171875 1010.230163574219 C 12389.1162109375 1010.470825195312 12389.74609375 1010.8173828125 12390.326171875 1011.261779785156 L 12390.6025390625 1011.474182128906 L 12390.8232421875 1011.744506835938 L 12391.0888671875 1012.069213867188 C 12391.4345703125 1012.424438476562 12391.7490234375 1012.80908203125 12392.0263671875 1013.21630859375 L 12406.373046875 1030.772094726562 C 12408.2041015625 1032.317626953125 12409.2470703125 1034.565795898438 12409.2470703125 1036.999877929688 C 12409.2470703125 1039.453125 12408.1875 1041.7177734375 12406.330078125 1043.26416015625 L 12392.4091796875 1059.166259765625 C 12391.71875 1060.394165039062 12390.732421875 1061.43359375 12389.537109375 1062.189453125 C 12388.1796875 1063.047241210938 12386.611328125 1063.500732421875 12385 1063.500732421875 Z" stroke="none" fill="#fff"/>
        </g>
        <circle id="Ellipse_164" data-name="Ellipse 164" cx="3.5" cy="3.5" r="3.5" transform="translate(569 255)" fill="#d03a36"/>
      </g>
      <g id="Group_619" data-name="Group 619" transform="translate(301.776 -14.18)">
        <g id="Ellipse_162" data-name="Ellipse 162" transform="translate(205 249.881)" fill="none" stroke="#fff" stroke-width="4">
          <circle cx="2.788" cy="2.788" r="2.788" stroke="none"/>
          <circle cx="2.788" cy="2.788" r="4.788" fill="none"/>
        </g>
        <g id="Ellipse_163" data-name="Ellipse 163" transform="translate(218.941 263.822)" fill="none" stroke="#fff" stroke-width="4">
          <circle cx="2.788" cy="2.788" r="2.788" stroke="none"/>
          <circle cx="2.788" cy="2.788" r="4.788" fill="none"/>
        </g>
        <path id="Path_614" data-name="Path 614" d="M-12121.719-743.081l20.184-21.6" transform="translate(12326.979 1013)" fill="none" stroke="#fff" stroke-linecap="round" stroke-width="4"/>
      </g>
    </g>
    <g id="Group_695" data-name="Group 695" transform="translate(332 10)">
      <g id="Group_618-2" data-name="Group 618" transform="translate(-16 -13)">
        <g id="Union_6-2" data-name="Union 6" transform="translate(-11822 -778)" fill="#d03a36">
          <path d="M 12385 1062.000732421875 L 12332.0009765625 1062.000732421875 C 12328.1396484375 1062.000732421875 12324.9990234375 1058.859619140625 12324.9990234375 1054.998779296875 L 12324.9990234375 1018.001525878906 C 12324.9990234375 1014.140625 12328.1396484375 1010.999572753906 12332.0009765625 1010.999572753906 L 12385 1010.999572753906 C 12386.0078125 1010.999572753906 12386.98046875 1011.209228515625 12387.890625 1011.622863769531 C 12388.4296875 1011.811645507812 12388.94140625 1012.09033203125 12389.4130859375 1012.452026367188 L 12389.5517578125 1012.558227539062 L 12389.662109375 1012.693420410156 L 12389.9697265625 1013.070861816406 C 12390.287109375 1013.390991210938 12390.5732421875 1013.74072265625 12390.8212890625 1014.112426757812 L 12405.3046875 1031.834350585938 C 12406.859375 1033.095947265625 12407.7470703125 1034.967895507812 12407.7470703125 1036.999877929688 C 12407.7470703125 1039.041015625 12406.8505859375 1040.920776367188 12405.283203125 1042.182495117188 L 12391.173828125 1058.301147460938 C 12390.6015625 1059.369140625 12389.7626953125 1060.272338867188 12388.7353515625 1060.921508789062 C 12387.619140625 1061.627563476562 12386.3271484375 1062.000732421875 12385 1062.000732421875 Z" stroke="none"/>
          <path d="M 12385 1060.500732421875 C 12387.158203125 1060.500732421875 12389.0244140625 1059.258544921875 12389.9248046875 1057.450073242188 L 12404.24609375 1041.089721679688 C 12406.9140625 1039.044067382812 12406.9140625 1034.955688476562 12404.24609375 1032.910034179688 L 12389.611328125 1015.002380371094 C 12389.3935546875 1014.66748046875 12389.1396484375 1014.357849121094 12388.8564453125 1014.078674316406 L 12388.5 1013.642272949219 C 12388.1259765625 1013.355407714844 12387.734375 1013.150146484375 12387.3330078125 1013.017456054688 C 12386.625 1012.685241699219 12385.833984375 1012.499572753906 12385 1012.499572753906 L 12332.0009765625 1012.499572753906 C 12328.9619140625 1012.499572753906 12326.4990234375 1014.962524414062 12326.4990234375 1018.001525878906 L 12326.4990234375 1054.998779296875 C 12326.4990234375 1058.037841796875 12328.9619140625 1060.500732421875 12332.0009765625 1060.500732421875 L 12385 1060.500732421875 M 12385 1063.500732421875 L 12332.0009765625 1063.500732421875 C 12327.3134765625 1063.500732421875 12323.4990234375 1059.686767578125 12323.4990234375 1054.998779296875 L 12323.4990234375 1018.001525878906 C 12323.4990234375 1013.313537597656 12327.3134765625 1009.499572753906 12332.0009765625 1009.499572753906 L 12385 1009.499572753906 C 12386.2021484375 1009.499572753906 12387.3623046875 1009.745300292969 12388.451171875 1010.230163574219 C 12389.1162109375 1010.470825195312 12389.74609375 1010.8173828125 12390.326171875 1011.261779785156 L 12390.6025390625 1011.474182128906 L 12390.8232421875 1011.744506835938 L 12391.0888671875 1012.069213867188 C 12391.4345703125 1012.424438476562 12391.7490234375 1012.80908203125 12392.0263671875 1013.21630859375 L 12406.373046875 1030.772094726562 C 12408.2041015625 1032.317626953125 12409.2470703125 1034.565795898438 12409.2470703125 1036.999877929688 C 12409.2470703125 1039.453125 12408.1875 1041.7177734375 12406.330078125 1043.26416015625 L 12392.4091796875 1059.166259765625 C 12391.71875 1060.394165039062 12390.732421875 1061.43359375 12389.537109375 1062.189453125 C 12388.1796875 1063.047241210938 12386.611328125 1063.500732421875 12385 1063.500732421875 Z" stroke="none" fill="#fff"/>
        </g>
        <circle id="Ellipse_164-2" data-name="Ellipse 164" cx="3.5" cy="3.5" r="3.5" transform="translate(569 255)" fill="#fff"/>
      </g>
      <g id="Group_619-2" data-name="Group 619" transform="translate(301.776 -14.18)">
        <g id="Ellipse_162-2" data-name="Ellipse 162" transform="translate(205 249.881)" fill="none" stroke="#fff" stroke-width="4">
          <circle cx="2.788" cy="2.788" r="2.788" stroke="none"/>
          <circle cx="2.788" cy="2.788" r="4.788" fill="none"/>
        </g>
        <g id="Ellipse_163-2" data-name="Ellipse 163" transform="translate(218.941 263.822)" fill="none" stroke="#fff" stroke-width="4">
          <circle cx="2.788" cy="2.788" r="2.788" stroke="none"/>
          <circle cx="2.788" cy="2.788" r="4.788" fill="none"/>
        </g>
        <path id="Path_614-2" data-name="Path 614" d="M-12121.719-743.081l20.184-21.6" transform="translate(12326.979 1013)" fill="none" stroke="#fff" stroke-linecap="round" stroke-width="4"/>
      </g>
    </g>
  </g>
</svg>
