<svg xmlns="http://www.w3.org/2000/svg" width="23.636" height="21.818" viewBox="0 0 23.636 21.818">
  <g id="ic_download3" transform="translate(0 -18.27)">
    <g id="Group_544" data-name="Group 544" transform="translate(0 18.27)">
      <path id="Path_577" data-name="Path 577" d="M23.238,311.031a1.315,1.315,0,0,0-.966-.4H15.681l-1.932,1.932a2.743,2.743,0,0,1-3.864,0l-1.918-1.932H1.364a1.316,1.316,0,0,0-.966.4A1.315,1.315,0,0,0,0,312v4.545a1.315,1.315,0,0,0,.4.966,1.315,1.315,0,0,0,.966.4H22.272a1.358,1.358,0,0,0,1.363-1.363V312A1.314,1.314,0,0,0,23.238,311.031Zm-5.326,4.787a.892.892,0,1,1,.27-.639A.874.874,0,0,1,17.912,315.817Zm3.636,0a.891.891,0,1,1,.27-.639A.873.873,0,0,1,21.548,315.817Z" transform="translate(0 -296.087)" fill="#fff"/>
      <path id="Path_578" data-name="Path 578" d="M97.715,33.455a.892.892,0,0,0,1.278,0l6.364-6.364a.82.82,0,0,0,.2-.994.849.849,0,0,0-.838-.554h-3.636V19.179a.922.922,0,0,0-.909-.909H96.536a.922.922,0,0,0-.909.909v6.364H91.991a.849.849,0,0,0-.838.554.82.82,0,0,0,.2.994Z" transform="translate(-86.536 -18.27)" fill="#fff"/>
    </g>
  </g>
</svg>
