<svg xmlns="http://www.w3.org/2000/svg" width="70" height="56" viewBox="0 0 70 56">
  <g id="ic_db_survey01" transform="translate(-185 -236)">
    <g id="ic_survey" transform="translate(-4056 -1225.13)">
      <path id="Subtraction_19" data-name="Subtraction 19" d="M44,56H5a5.005,5.005,0,0,1-5-5V5A5.006,5.006,0,0,1,5,0H44a5.006,5.006,0,0,1,5,5V51A5.006,5.006,0,0,1,44,56ZM14.7,28.8v9.6H34.3V28.8Zm4.064-9.739h0L16.331,21.3l4.8,5.113,10.11-8.462-2.076-2.461L21.423,22l-2.659-2.939Z" transform="translate(4241 1461.13)" fill="#56bb76"/>
    </g>
    <rect id="Rectangle_1754" data-name="Rectangle 1754" width="35" height="42" rx="5" transform="translate(220 250)" fill="#56bb76" opacity="0.143"/>
  </g>
</svg>
