<svg xmlns="http://www.w3.org/2000/svg" width="26" height="26" viewBox="0 0 26 26">
  <g id="ic_download" transform="translate(-803 -535)">
    <rect id="Rectangle_1259" data-name="Rectangle 1259" width="26" height="26" transform="translate(803 535)" fill="#efefef" opacity="0"/>
    <g id="Group_545" data-name="Group 545" transform="translate(808 522.73)">
      <g id="Group_544" data-name="Group 544" transform="translate(0 18.27)">
        <path id="Path_577" data-name="Path 577" d="M15.012,310.89a.849.849,0,0,0-.624-.257H10.13l-1.248,1.248a1.772,1.772,0,0,1-2.5,0l-1.239-1.248H.881a.85.85,0,0,0-.624.257.849.849,0,0,0-.257.624v2.936a.849.849,0,0,0,.257.624.85.85,0,0,0,.624.257H14.388a.877.877,0,0,0,.881-.881v-2.936A.849.849,0,0,0,15.012,310.89Zm-3.441,3.092a.576.576,0,1,1,.174-.413A.565.565,0,0,1,11.571,313.982Zm2.349,0a.576.576,0,1,1,.174-.413A.564.564,0,0,1,13.92,313.982Z" transform="translate(0 -301.237)" fill="#656565"/>
        <path id="Path_578" data-name="Path 578" d="M95.362,28.079a.576.576,0,0,0,.826,0l4.111-4.111a.53.53,0,0,0,.128-.642.549.549,0,0,0-.541-.358H97.536V18.857a.6.6,0,0,0-.587-.587H94.6a.6.6,0,0,0-.587.587v4.111H91.664a.549.549,0,0,0-.541.358.53.53,0,0,0,.129.642Z" transform="translate(-88.14 -18.27)" fill="#656565"/>
      </g>
    </g>
  </g>
</svg>
