<svg xmlns="http://www.w3.org/2000/svg" width="30" height="30" viewBox="0 0 30 30">
  <g id="list_public_down" transform="translate(-15986 8362)">
    <rect id="Rectangle_2091" data-name="Rectangle 2091" width="30" height="30" transform="translate(15986 -8362)" fill="#fff" opacity="0"/>
    <g id="Group_4214" data-name="Group 4214" transform="translate(15988 -8355)">
      <g id="Group_3544" data-name="Group 3544">
        <path id="Path_1243" data-name="Path 1243" d="M241.29,171.377h-4.748v-4.8h1.569a.491.491,0,0,0,.4-.778l-3.052-4.223a.486.486,0,0,0-.791,0l-3.052,4.223a.49.49,0,0,0,.4.778h1.569v4.8h-5.317A4.755,4.755,0,0,1,224,166.62a4.5,4.5,0,0,1,2.234-3.888,3.02,3.02,0,0,1-.186-1.054,3.063,3.063,0,0,1,3.066-3.066,3.013,3.013,0,0,1,1.049.185,6.137,6.137,0,0,1,11.661,2.026,5.339,5.339,0,0,1-.533,10.553Zm0,0" transform="translate(-224 -155.276)" fill="#213c92"/>
      </g>
      <rect id="Rectangle_1953" data-name="Rectangle 1953" width="9.84" height="10.734" transform="translate(5.942 5.367)" fill="#213c92"/>
      <g id="Group_3564" data-name="Group 3564" transform="translate(25.896 16.958) rotate(180)">
        <path id="Path_5013" data-name="Path 5013" d="M6.224,0A6.224,6.224,0,1,1,0,6.224,6.224,6.224,0,0,1,6.224,0Z" fill="#eb4a47" stroke="#fff" stroke-width="1"/>
        <g id="Group_3563" data-name="Group 3563" transform="translate(3.403 2.263)">
          <path id="Path_5011" data-name="Path 5011" d="M235.233,306.589a.566.566,0,0,1-.566-.566v-6.79a.566.566,0,1,1,1.132,0v6.79A.566.566,0,0,1,235.233,306.589Z" transform="translate(-232.411 -298.667)" fill="#fafafa"/>
          <path id="Path_5012" data-name="Path 5012" d="M197.226,302.074a.566.566,0,0,1-.4-.165l-1.863-1.864-1.863,1.864a.566.566,0,0,1-.8-.8l2.263-2.263a.566.566,0,0,1,.8,0l2.263,2.263a.566.566,0,0,1-.4.965Z" transform="translate(-192.141 -298.679)" fill="#fafafa"/>
        </g>
      </g>
    </g>
  </g>
</svg>
