<svg xmlns="http://www.w3.org/2000/svg" xmlns:xlink="http://www.w3.org/1999/xlink" width="84.835" height="63.677" viewBox="0 0 84.835 63.677">
  <defs>
    <filter id="Rectangle_1046" x="0" y="0" width="60" height="31" filterUnits="userSpaceOnUse">
      <feOffset dy="3" input="SourceAlpha"/>
      <feGaussianBlur stdDeviation="3" result="blur"/>
      <feFlood flood-opacity="0.502"/>
      <feComposite operator="in" in2="blur"/>
      <feComposite in="SourceGraphic"/>
    </filter>
  </defs>
  <g id="ic_media_folder" transform="translate(-202 -352)">
    <path id="Path_568" data-name="Path 568" d="M2.32,0H51.047a2.21,2.21,0,0,1,2.32,2.079v18.71a2.21,2.21,0,0,1-2.32,2.079H2.32A2.21,2.21,0,0,1,0,20.789V2.079A2.21,2.21,0,0,1,2.32,0Z" transform="translate(207 352.132)" fill="#f5bb41"/>
    <g transform="matrix(1, 0, 0, 1, 202, 352)" filter="url(#Rectangle_1046)">
      <rect id="Rectangle_1046-2" data-name="Rectangle 1046" width="42" height="13" transform="translate(9 6)" fill="#fff"/>
    </g>
    <path id="Path_567" data-name="Path 567" d="M3.165,9.74H36.329L42.527,0H75a4,4,0,0,1,4,4V57.677a4,4,0,0,1-4,4H3.165a4,4,0,0,1-4-4V13.74A4,4,0,0,1,3.165,9.74Z" transform="translate(207.835 354)" fill="#d39e00"/>
    <path id="Path_569" data-name="Path 569" d="M3.165,9.271H36.329L42.527,0H75a3.907,3.907,0,0,1,4,3.807V54.9A3.907,3.907,0,0,1,75,58.7H3.165a3.907,3.907,0,0,1-4-3.807V13.078A3.907,3.907,0,0,1,3.165,9.271Z" transform="translate(207.835 354)" fill="#f9d772"/>
  </g>
</svg>
