<svg xmlns="http://www.w3.org/2000/svg" width="70" height="62" viewBox="0 0 70 62">
  <g id="ic_media" transform="translate(-4424 -1447)">
    <rect id="Rectangle_1670" data-name="Rectangle 1670" width="70" height="62" transform="translate(4424 1447)" opacity="0"/>
    <path id="Subtraction_18" data-name="Subtraction 18" d="M-10159.628,3179H-10186a4.005,4.005,0,0,1-4-4v-21a4.005,4.005,0,0,1,4-4h4.444l2.8,3.606h19.123a4,4,0,0,1,4,4V3175A4,4,0,0,1-10159.628,3179Zm-18.175-13h0l-7.468,9.142h15l-7.534-9.142Zm6.519-3.222h0l-3.035,4.593,6.56,7.762h5.721l-9.245-12.355Zm7.981-3.777a2,2,0,0,0-2,2,2,2,0,0,0,2,2,2,2,0,0,0,2-2A2,2,0,0,0-10163.3,3159Z" transform="translate(14631.001 -1686.999)" fill="#fff"/>
  </g>
</svg>
