<svg xmlns="http://www.w3.org/2000/svg" width="60" height="60" viewBox="0 0 60 60">
  <g id="ic_promotion" transform="translate(16163 20948)">
    <rect id="Rectangle_2129" data-name="Rectangle 2129" width="60" height="60" transform="translate(-16163 -20948)" fill="none"/>
    <path id="Path_5326" data-name="Path 5326" d="M36.041,14.163a.807.807,0,0,1,0-.91l1.043-1.54A2.582,2.582,0,0,0,35.77,7.832l-1.785-.657a.839.839,0,0,1-.557-.736l-.1-1.834a2.717,2.717,0,0,0-3.438-2.4l-1.846.477a.891.891,0,0,1-.9-.281L25.943.974a2.8,2.8,0,0,0-4.249,0L20.491,2.4a.889.889,0,0,1-.9.281l-1.846-.477a2.718,2.718,0,0,0-3.438,2.4l-.1,1.834a.838.838,0,0,1-.557.736l-1.785.656a2.582,2.582,0,0,0-1.313,3.882l1.042,1.538a.809.809,0,0,1,0,.911L10.553,15.7a2.582,2.582,0,0,0,1.313,3.882l1.785.657a.839.839,0,0,1,.557.736l.1,1.834a2.718,2.718,0,0,0,3.438,2.4l1.846-.477a.892.892,0,0,1,.9.282l1.2,1.427a2.8,2.8,0,0,0,4.25,0l1.2-1.428a.891.891,0,0,1,.9-.282l1.848.478a2.718,2.718,0,0,0,3.437-2.4l.1-1.833a.84.84,0,0,1,.557-.737l1.785-.656A2.583,2.583,0,0,0,37.083,15.7ZM20.05,8.886a1.791,1.791,0,1,1-1.863,1.79A1.83,1.83,0,0,1,20.05,8.886Zm6.832,10.142a1.791,1.791,0,1,1,1.863-1.79A1.83,1.83,0,0,1,26.882,19.027Zm1.59-8.614-8.7,8.352a.959.959,0,0,1-1.317,0,.87.87,0,0,1,0-1.265l8.7-8.352a.959.959,0,0,1,1.317,0A.87.87,0,0,1,28.472,10.413Z" transform="translate(-16156.524 -20931.416)" fill="#fff"/>
  </g>
</svg>
