<svg xmlns="http://www.w3.org/2000/svg" width="30" height="30" viewBox="0 0 30 30">
  <g id="list_view" transform="translate(-15909 8362)">
    <rect id="Rectangle_2086" data-name="Rectangle 2086" width="30" height="30" transform="translate(15909 -8362)" fill="#fff" opacity="0"/>
    <g id="ic_hidden" transform="translate(15914 -8357.479)">
      <rect id="Rectangle_1820" data-name="Rectangle 1820" width="20" height="20" transform="translate(0 0.479)" fill="#653030" opacity="0"/>
      <g id="ic_hidden-2" data-name="ic_hidden" transform="translate(0.185 4.139)">
        <g id="Group_93" data-name="Group 93" transform="translate(0 0)">
          <g id="Path_5007" data-name="Path 5007" fill="none">
            <path d="M9.851,0C15.292,0,19.7,6,19.7,6s-4.41,6-9.851,6S0,6,0,6,4.41,0,9.851,0Z" stroke="none"/>
            <path d="M 9.85101318359375 1.399997711181641 C 6.32671070098877 1.399997711181641 3.161191940307617 4.48259973526001 1.814506530761719 6.002853870391846 C 2.274425506591797 6.522645950317383 2.948802947998047 7.225520133972168 3.786772727966309 7.930768013000488 C 5.235023498535156 9.149618148803711 7.462713241577148 10.60253810882568 9.85101318359375 10.60253810882568 C 13.37532329559326 10.60253810882568 16.54083633422852 7.519937038421631 17.88751983642578 5.999682903289795 C 17.42760276794434 5.479890823364258 16.75322341918945 4.777015686035156 15.91525268554688 4.071767807006836 C 14.46701335906982 2.852917671203613 12.23932266235352 1.399997711181641 9.85101318359375 1.399997711181641 M 9.85101318359375 -1.9073486328125e-06 C 15.29158306121826 -1.9073486328125e-06 19.70202255249023 6.001267910003662 19.70202255249023 6.001267910003662 C 19.70202255249023 6.001267910003662 15.29158306121826 12.00253772735596 9.85101318359375 12.00253772735596 C 4.410452842712402 12.00253772735596 3.814697265625e-06 6.001267910003662 3.814697265625e-06 6.001267910003662 C 3.814697265625e-06 6.001267910003662 4.410452842712402 -1.9073486328125e-06 9.85101318359375 -1.9073486328125e-06 Z" stroke="none" fill="#213c92"/>
          </g>
          <ellipse id="Ellipse_56" data-name="Ellipse 56" cx="3" cy="3.051" rx="3" ry="3.051" transform="translate(6.815 2.85)" fill="#213c92"/>
        </g>
        <circle id="Ellipse_450" data-name="Ellipse 450" cx="1.5" cy="1.5" r="1.5" transform="translate(9.814 3.339)" fill="#fff"/>
      </g>
    </g>
  </g>
</svg>
