<svg xmlns="http://www.w3.org/2000/svg" width="26" height="26" viewBox="0 0 26 26">
  <g id="ic_remove2" transform="translate(-803 -626)">
    <rect id="Rectangle_1261" data-name="Rectangle 1261" width="26" height="26" transform="translate(803 626)" fill="#efefef" opacity="0"/>
    <g id="Group_551" data-name="Group 551" transform="translate(512 496.724)">
      <path id="Path_583" data-name="Path 583" d="M316.165,225.339a.816.816,0,0,0,.816.782H324.6a.816.816,0,0,0,.816-.782l.544-11.489H315.621Zm6.35-8.635a.332.332,0,0,1,.332-.332h.53a.332.332,0,0,1,.332.332v6.564a.332.332,0,0,1-.332.332h-.53a.332.332,0,0,1-.332-.332Zm-2.321,0a.332.332,0,0,1,.331-.332h.53a.332.332,0,0,1,.331.332v6.564a.331.331,0,0,1-.331.332h-.53a.331.331,0,0,1-.331-.332Zm-2.321,0a.332.332,0,0,1,.332-.332h.53a.332.332,0,0,1,.332.332v6.564a.332.332,0,0,1-.332.332h-.53a.332.332,0,0,1-.332-.332Zm0,0" transform="translate(-16.746 -75.624)" fill="#656565"/>
      <path id="Path_584" data-name="Path 584" d="M309.578,135.112h-3.516v-.665a.171.171,0,0,0-.171-.171H302.2a.171.171,0,0,0-.171.171v.665h-3.516a.512.512,0,0,0-.512.512v1.609h12.09v-1.609a.512.512,0,0,0-.512-.512Zm0,0" fill="#656565"/>
    </g>
  </g>
</svg>
