<svg xmlns="http://www.w3.org/2000/svg" width="26" height="26" viewBox="0 0 26 26">
  <g id="ic_rename" transform="translate(-803 -447)">
    <rect id="Rectangle_1257" data-name="Rectangle 1257" width="26" height="26" transform="translate(803 447)" fill="#efefef" opacity="0"/>
    <g id="Group_548" data-name="Group 548" transform="translate(26.125 10.443)">
      <path id="Path_580" data-name="Path 580" d="M83.4-43.45l2.789,2.789L79.134-33.6l-2.787-2.789Zm4.9-.673-1.244-1.244a1.234,1.234,0,0,0-1.743,0l-1.191,1.191,2.789,2.789,1.39-1.39a.951.951,0,0,0,0-1.347ZM74.887-32.471a.317.317,0,0,0,.384.378l3.108-.753-2.787-2.789Zm0,0" transform="translate(706.995 488.284)" fill="#656565"/>
      <path id="Path_581" data-name="Path 581" d="M3.6,0H9.363V3.451H0Z" transform="translate(788 453)" fill="#656565"/>
    </g>
  </g>
</svg>
