<svg xmlns="http://www.w3.org/2000/svg" width="17.892" height="24.005" viewBox="0 0 17.892 24.005">
  <g id="ic_remove3" transform="translate(-298 -134.276)">
    <path id="Path_583" data-name="Path 583" d="M316.426,230.852a1.208,1.208,0,0,0,1.207,1.158h11.278a1.208,1.208,0,0,0,1.207-1.158l.805-17h-15.3Zm9.4-12.779a.491.491,0,0,1,.491-.491h.785a.491.491,0,0,1,.491.491v9.714a.491.491,0,0,1-.491.491h-.785a.491.491,0,0,1-.491-.491Zm-3.434,0a.491.491,0,0,1,.49-.491h.785a.491.491,0,0,1,.49.491v9.714a.49.49,0,0,1-.49.491h-.785a.49.49,0,0,1-.49-.491Zm-3.435,0a.491.491,0,0,1,.491-.491h.785a.491.491,0,0,1,.491.491v9.714a.491.491,0,0,1-.491.491h-.785a.491.491,0,0,1-.491-.491Zm0,0" transform="translate(-16.327 -73.729)" fill="#fff"/>
    <path id="Path_584" data-name="Path 584" d="M315.134,135.513h-5.2v-.984a.253.253,0,0,0-.253-.253h-5.464a.253.253,0,0,0-.253.253v.983h-5.2a.758.758,0,0,0-.758.758v2.381h17.892v-2.381a.758.758,0,0,0-.758-.758Zm0,0" fill="#fff"/>
  </g>
</svg>
