<svg xmlns="http://www.w3.org/2000/svg" width="60" height="60" viewBox="0 0 60 60">
  <g id="ic_salesservice" transform="translate(17921 20690)">
    <rect id="Rectangle_2150" data-name="Rectangle 2150" width="60" height="60" transform="translate(-17921 -20690)" fill="#fff" opacity="0"/>
    <g id="Group_4706" data-name="Group 4706" transform="translate(-17948.35 -21570.773)">
      <g id="ic_configuration" transform="translate(47.306 892.774)">
        <path id="Subtraction_24" data-name="Subtraction 24" d="M11,22.017a10.907,10.907,0,0,1-1.268-.073.611.611,0,0,1-.54-.643A2.443,2.443,0,0,0,7.7,18.911a2.282,2.282,0,0,0-.888-.172,2.528,2.528,0,0,0-1.857.79.612.612,0,0,1-.838.067,10.93,10.93,0,0,1-1.741-1.763A.613.613,0,0,1,2.441,17a2.45,2.45,0,0,0,.615-2.722A2.425,2.425,0,0,0,.849,12.772H.791a.733.733,0,0,1-.722-.541,11.019,11.019,0,0,1,0-2.5.6.6,0,0,1,.612-.541H.71A2.547,2.547,0,0,0,3.1,7.7a2.44,2.44,0,0,0-.615-2.747.613.613,0,0,1-.065-.836A10.963,10.963,0,0,1,4.2,2.355a.609.609,0,0,1,.378-.13.615.615,0,0,1,.453.2,2.532,2.532,0,0,0,1.856.785,2.286,2.286,0,0,0,.869-.164A2.449,2.449,0,0,0,9.268.7a.616.616,0,0,1,.545-.63A10.962,10.962,0,0,1,12.29.074a.611.611,0,0,1,.54.643,2.446,2.446,0,0,0,1.487,2.39,2.3,2.3,0,0,0,.889.172,2.523,2.523,0,0,0,1.856-.789.613.613,0,0,1,.837-.068,10.927,10.927,0,0,1,1.744,1.761.615.615,0,0,1-.067.83A2.431,2.431,0,0,0,21.24,9.244a.721.721,0,0,1,.707.542,10.985,10.985,0,0,1,0,2.5.616.616,0,0,1-.6.542l-.045,0-.136,0a2.464,2.464,0,0,0-2.251,1.492,2.438,2.438,0,0,0,.617,2.747.612.612,0,0,1,.065.836,10.948,10.948,0,0,1-1.781,1.761.614.614,0,0,1-.83-.069,2.536,2.536,0,0,0-1.855-.785,2.3,2.3,0,0,0-.871.165,2.448,2.448,0,0,0-1.506,2.348.615.615,0,0,1-.545.63A10.93,10.93,0,0,1,11,22.017ZM10.975,9.6a1.372,1.372,0,1,0,1.372,1.372A1.373,1.373,0,0,0,10.975,9.6Z" transform="translate(0 0)" fill="#fff" stroke="rgba(0,0,0,0)" stroke-miterlimit="10" stroke-width="1"/>
      </g>
      <g id="Group_2861" data-name="Group 2861" transform="translate(40.35 914.791)">
        <rect id="Rectangle_1697" data-name="Rectangle 1697" width="6.115" height="13.452" rx="1" transform="translate(0 0.399)" fill="#fff"/>
        <path id="Path_1142" data-name="Path 1142" d="M186.518-478.545c-.054-.049,0,12.029,0,12.029a7.184,7.184,0,0,0,2.737.458c1.8.018,12.61,0,12.61,0a2.782,2.782,0,0,0,2.223-.807c1.207-1.027,7.256-9.79,7.256-9.79a1.946,1.946,0,0,0-.67-2.5c-1.444-.994-2.65.623-2.8.775s-4.855,5.875-4.855,5.875a2.476,2.476,0,0,1-1.153.76c-.635.138-7.929,0-7.929,0s-.908-.367-.776-1.161,1.13-.789,1.13-.789h7.2a1.966,1.966,0,0,0,1.527-1.845,1.851,1.851,0,0,0-1.916-1.979c-.642-.018-5.53,0-5.53,0l-1.281-1.028h0a5.382,5.382,0,0,0-3.763-1.318C188.506-479.612,187.061-479.315,186.518-478.545Z" transform="translate(-178.548 479.889)" fill="#fff"/>
      </g>
    </g>
  </g>
</svg>
