<svg xmlns="http://www.w3.org/2000/svg" width="24.516" height="24.516" viewBox="0 0 24.516 24.516">
  <g id="ic_save" transform="translate(-102 -225.89)">
    <path id="Path_1186" data-name="Path 1186" d="M217,230.419h9.155a.5.5,0,0,0,.5-.5V225.89H216.508v4.033a.5.5,0,0,0,.5.5Zm0,0" transform="translate(-107.324)" fill="#213c92"/>
    <path id="Path_1187" data-name="Path 1187" d="M126.133,232.057l-5.167-5.188v3.055a2.133,2.133,0,0,1-2.13,2.13h-9.155a2.133,2.133,0,0,1-2.13-2.13V225.89h-3.3a2.25,2.25,0,0,0-2.25,2.249v20.018a2.25,2.25,0,0,0,2.25,2.249h20.017a2.249,2.249,0,0,0,2.249-2.249V232.983a1.311,1.311,0,0,0-.383-.926Zm-3.431,13.19a1.313,1.313,0,0,1-1.314,1.313H107.126a1.313,1.313,0,0,1-1.313-1.313V238.4a1.313,1.313,0,0,1,1.313-1.312h14.262A1.313,1.313,0,0,1,122.7,238.4Zm0,0" fill="#213c92"/>
    <path id="Path_1188" data-name="Path 1188" d="M206.611,438h-11.27a.817.817,0,1,0,0,1.634h11.27a.817.817,0,1,0,0-1.634Zm0,0" transform="translate(-86.718 -198.799)" fill="#213c92"/>
    <path id="Path_1189" data-name="Path 1189" d="M229.4,490.1h-8a.817.817,0,0,0,0,1.634h8a.817.817,0,1,0,0-1.634Zm0,0" transform="translate(-111.142 -247.635)" fill="#213c92"/>
  </g>
</svg>
