<?xml version="1.0" standalone="yes"?>
<svg xmlns="http://www.w3.org/2000/svg" width="64" height="64">
<path style="fill:#DDD; stroke:none;" d="M0 0L0 64L24 64L24 63L9 56L3 59C3 54.7011 0.73433 40.4144 5.3179 38.2377C9.47351 36.2642 27.4301 44.5882 20 49L20 50C28.3865 53.2296 37.3608 54.7973 44.9599 48.6065C48.523 45.7036 51.7926 37.6358 56.9846 37.6358C62.8568 37.6358 61.7838 44.7105 59.8665 48C55.5349 55.4317 48.341 61.0004 40 63L40 64L64 64L64 0L40 0L40 1L55 8L61 5C61 9.29886 63.2657 23.5856 58.6821 25.7623C54.5265 27.7358 36.5699 19.4118 44 15L44 14C35.6135 10.7704 26.6392 9.20272 19.0401 15.3935C15.477 18.2964 12.2074 26.3642 7.01543 26.3642C1.14323 26.3642 2.21618 19.2895 4.13349 16C8.46508 8.56832 15.659 2.99964 24 1L0 0z"/>
<path style="fill:#010101; stroke:none;" d="M44 14L44 15C34.5394 18.1519 54.936 29.0657 59.3966 25.929C63.2477 23.2209 61 9.3181 61 5L55 8C43.1351 0.685955 29.2996 -3.92511 16 3.52855C11.294 6.16602 -4.71586 20.1598 4.3179 25.9676C10.8641 30.1761 17.4242 16.8444 22.0008 13.9946C29.5663 9.28353 36.2056 11.8733 44 14M3 59L9 56C20.8649 63.314 34.7004 67.9251 48 60.4715C52.7061 57.834 68.7159 43.8402 59.6821 38.0324C53.1359 33.8239 46.5758 47.1556 41.9992 50.0054C34.4337 54.7165 27.7944 52.1267 20 50C29.0963 43.7451 8.84787 35.0863 4.60339 38.071C0.752312 40.7791 3 54.6819 3 59z"/>
</svg>
