<svg xmlns="http://www.w3.org/2000/svg" width="211.421" height="96.768" viewBox="0 0 211.421 96.768">
  <g id="ic_logo" transform="translate(-101.378 -306.703)">
    <path id="Path_1" data-name="Path 1" d="M312.8,384.774c0,10.284-8.945,18.7-19.883,18.7H121.235c-10.931,0-19.857-8.413-19.857-18.7V325.409c0-10.276,8.926-18.706,19.857-18.706h171.68c10.938,0,19.883,8.43,19.883,18.706Z" transform="translate(0 0)" fill="#1072ba"/>
    <path id="Path_2" data-name="Path 2" d="M284.117,466.033a2.971,2.971,0,1,0,0,5.942h67.228a2.971,2.971,0,1,0,0-5.942Z" transform="translate(-129.574 -114.845)" fill="#fff"/>
    <path id="Path_3" data-name="Path 3" d="M315.222,381.305,282.87,397.767a2.94,2.94,0,0,0-1.265,3.978,2.909,2.909,0,0,0,3.973,1.295s29.762-14.964,32.25-16.231c2.508,1.266,32.4,16.395,32.4,16.395a2.969,2.969,0,1,0,2.677-5.3l-32.33-16.6a7.115,7.115,0,0,0-5.35,0" transform="translate(-129.664 -53.397)" fill="#fff"/>
    <path id="Path_4" data-name="Path 4" d="M333.055,512.867v-.028l-.032-.03Z" transform="translate(-166.97 -148.562)" fill="#fff"/>
    <path id="Path_5" data-name="Path 5" d="M651.119,508.45c-.1,1.372.6,2.852,2.136,2.48.6-.15,1.308-.54,1.308.888a77.788,77.788,0,0,1,0,8.871c-.155.437-.4.7-1.357.4-1.143-.364-2.1.6-2.1,1.992,0,1.423.823,3.12,2.762,2.681a21.462,21.462,0,0,1,3.869-.39c.8.087,2.438.237,3.728.39,2.268.322,2.712-1.258,2.712-2.681,0-1.392-.6-2.253-2.154-1.888a1.063,1.063,0,0,1-1.133-.258,16.523,16.523,0,0,1-.2-4.148,11.219,11.219,0,0,1,.954-4.514c1.293-2.181,2.847-1.725,3.172-1.535-.7.879-.143,3.1,1.884,3.458,2.106.424,3.716-1.278,3.648-3.921-.052-2.2-1.75-4.9-6.092-4.405-1.679.216-3.367,1.407-4.847,3.639-.119-1.153,0-3.424-.953-3.29,0,0-1.737.209-2.9.239a13.031,13.031,0,0,0-2.74-.239,2.175,2.175,0,0,0-1.7,2.232" transform="translate(-396.243 -143.516)" fill="#f79421"/>
    <path id="Path_6" data-name="Path 6" d="M575.65,499.338c-3.092,2.138-8.423,1.115-9.576,1.705-.29.115-.214,2.593.09,2.935.337.414,1.694.461,2.434.208,1.125-.377,2.85,1.043,2.573,2.77-.274,1.754-1.335,2.843-3.975,2.625-1.233-.08-4.142-.44-5.141-.372a22.825,22.825,0,0,1-5.2.342,3.076,3.076,0,0,1-2.721-2.773,2.374,2.374,0,0,1,1.647-2.592c1.272-.263,2.567.739,2.795-.472.19-1,.145-4.157.174-7.26a71.637,71.637,0,0,0-.115-7.506c-.194-.647-2.01-.135-2.434-.135-1.113,0-2.014-1.362-1.869-2.767.143-1.5.993-2.715,3.417-2.715a35.3,35.3,0,0,1,4.375.5,47.511,47.511,0,0,0,6.669-.391,15.161,15.161,0,0,1,6.871,1.375,8.226,8.226,0,0,1,3.843,6.057c.2,3.7-.661,6.267-3.854,8.462m-9.695-4.1c.208.746,1.395.523,2.4.479,2.67-.03,3.926-1.21,3.926-3.341-.032-1.755-.7-2.356-1.353-2.748a6.577,6.577,0,0,0-3.911-.424,1.468,1.468,0,0,0-1.086,1.609,42.4,42.4,0,0,0,.027,4.425" transform="translate(-326.34 -127.314)" fill="#f79421"/>
    <path id="Path_7" data-name="Path 7" d="M734.051,505.13c-5.849,0-9.778,4.193-9.778,10.441,0,5.1,3.044,10.247,9.778,10.247,6.628,0,10.082-4.419,10.082-10.637,0-3.167-1.183-10.05-10.082-10.05m3.895,10.177c0,2.471-.684,5.732-3.828,5.732-2.7,0-3.5-3.212-3.5-5.588,0-2.77,1.093-5.461,3.5-5.513,2.459-.037,3.828,1.687,3.828,5.37" transform="translate(-448.984 -143.027)" fill="#f79421"/>
    <path id="Path_8" data-name="Path 8" d="M169.638,507.06c.157-1.418-.426-3.084-1.161-2.918-.991.235-1.812.182-1.812-.736,0-1.193-.279-4.948.227-5.036a55.255,55.255,0,0,1,7.462.088c.572.044.133,4.883-.187,5.684-.27.818-1.325-.591-2.288.382a4.581,4.581,0,0,0-.455,3.414,2.164,2.164,0,0,0,2.037,1.572c1.185.075,3.915-.4,4.909-.4a43.572,43.572,0,0,1,4.9.4c1.49.267,2.6-1.153,2.718-2.68.164-1.871-1.331-3.02-2.306-2.668-.955.362-1.831.589-2.067-.919-.159-.933-.175-12.495,0-13.583.237-1.562,1.113-1.093,2.528-.913.853.154,2.078-1.07,2.078-2.566,0-1.535-.731-3.15-2.965-2.7-.7.14-3.908.14-4.886.175-1.211.055-4.437-.175-5.294-.175-1.49,0-1.871,2.394-1.705,3.359.142.971.554,2.239,1.64,1.907.886-.239,1.477-.214,1.477.619,0,.728.158,3.7.158,4.015-1.954,0-5.872-.094-7.824-.094-.157-.781-.157-4.053.15-4.445.3-.352.9.045,1.849-.239.978-.269,1.26-2.069.975-3.167-.354-1.478-1.03-2.154-2.248-2.042a20.893,20.893,0,0,1-4.16.262c-.788-.1-3.389.055-5.1-.175-1.984-.252-2.918.542-3.129,2.55a2.213,2.213,0,0,0,1.777,2.672c1.021.025,2.44-.766,2.688.866.172,1.221.083,12.35,0,13.311-.065.985-.457,1.786-1.711,1.345-1.582-.551-2.827.7-2.827,2.606a2.678,2.678,0,0,0,2.446,2.755c.981-.075,4.856-.455,5.852-.477,1-.073,3.581.542,4.565.477,1.048-.075,1.567-1.36,1.685-2.524" transform="translate(-38.715 -127.35)" fill="#fff"/>
    <path id="Path_9" data-name="Path 9" d="M370.2,522.9c.1.879.364,2,1.355,2.251,1.153.3,3.387-.367,3.985-.42.586-.083,3.88.392,4.771.392.966,0,1.543-.978,1.7-2.6.145-1.64-1.041-2.306-1.779-2.079-.469.123-1.775.362-1.775-.821,0-.556.062-5.507.062-6.474,0-1.47.315-4.073-1.485-5.964a6.349,6.349,0,0,0-5.39-2.138c-2.359,0-4.784,1.68-6.288,2.825a5.957,5.957,0,0,0-5.633-2.74,9.46,9.46,0,0,0-5.346,2.6c-.06-.058.147-2.069-.889-2.151-.751-.042-2.158.212-3.2.212a13.993,13.993,0,0,1-3.047-.212c-.953-.26-1.56,1.295-1.56,2.685,0,.943.305,2.079,1.859,2.079.507,0,1.268-.616,1.547.3a86.467,86.467,0,0,1,.088,8.892c-.088,1.141-.525,1.106-1.268.914-1.493-.382-2.358.629-2.419,2.023a2.331,2.331,0,0,0,2.818,2.66c1.373-.153,2.154-.476,2.945-.476.96,0,2.531.476,4.22.476a2.043,2.043,0,0,0,2.094-2.106c.068-1.109-.225-2.182-.821-2.48-.656-.4-1.1.427-1.545-.479-.3-.582.021-5.322.021-5.41a4.469,4.469,0,0,1,.868-2.974,3.644,3.644,0,0,1,2.6-1.258c.894-.038,2.143.946,2.143,1.78,0,.8.182,7.108.08,7.727-.152.955-1.006.352-1.58.516-.683.2-1.051,1.707-.861,2.576.142.936.511,1.953,1.435,2.106.774.109,3.064-.339,4.115-.392,1.07-.083,3.092.392,3.813.392s1.1-.763,1.257-1.371c.145-.554.25-2.872-.532-3.177-.581-.209-1.6.305-1.78-.649-.038-.3-.047-3.282-.038-4.719a8.465,8.465,0,0,1,.8-3.389,3.627,3.627,0,0,1,2.514-1.4,2.648,2.648,0,0,1,2.244,1.333c.491.966.289,6.381.289,8.175,0,1.085-1.043.352-1.705.613-.442.13-.763,1.4-.671,2.363" transform="translate(-175.944 -142.965)" fill="#fff"/>
    <path id="Path_10" data-name="Path 10" d="M493.023,512.02H487.9c-.965,0,0-2.746,2.872-2.746,3.062,0,3.431,2.746,2.248,2.746m1.12,7.279a4.147,4.147,0,0,1-3.367,1.4,3.61,3.61,0,0,1-3.025-1.5c-.666-1.03-.911-2.967.447-3.031,1.256-.058,8.463,0,9.873,0,1.186,0,1.914-.908,1.914-2.414,0-5.179-3.451-8.961-9.288-8.961a9.738,9.738,0,0,0-7.4,3.379l-.026.03a11.276,11.276,0,0,0-2.344,7.214c0,6.131,4.11,10,9.925,10.112,3.945.073,7.741-2.226,8.475-4.315a2.69,2.69,0,0,0-.894-3.044c-1.71-1.048-3.573.232-4.293,1.126" transform="translate(-273.582 -142.787)" fill="#fff"/>
    <path id="Path_11" data-name="Path 11" d="M279.743,504.8c-5.86,0-9.79,4.2-9.79,10.429,0,5.134,3.037,10.271,9.79,10.271,6.623,0,10.074-4.42,10.074-10.6,0-3.2-1.193-10.1-10.074-10.1m3.908,10.19c0,2.44-.694,5.735-3.819,5.735-2.75,0-3.536-3.214-3.536-5.58,0-2.8,1.086-5.445,3.536-5.521,2.4-.042,3.819,1.685,3.819,5.366" transform="translate(-121.509 -142.786)" fill="#fff"/>
    <path id="Path_12" data-name="Path 12" d="M333.055,512.867v-.028l-.032-.03Z" transform="translate(-166.97 -148.562)" fill="#fff"/>
  </g>
</svg>
