<svg xmlns="http://www.w3.org/2000/svg" width="20.493" height="17.818" viewBox="0 0 20.493 17.818">
  <g id="ic_cart" transform="translate(-428 -461.711)">
    <path id="Path_18" data-name="Path 18" d="M479.969,575.53a1.926,1.926,0,1,0,1.925,1.926,1.928,1.928,0,0,0-1.925-1.926Zm0,2.608" transform="translate(-43.903 -99.853)"/>
    <path id="Path_19" data-name="Path 19" d="M548.949,575.53a1.926,1.926,0,1,0,1.926,1.926,1.928,1.928,0,0,0-1.926-1.926Zm0,2.608" transform="translate(-104.418 -99.853)"/>
    <path id="Path_20" data-name="Path 20" d="M448.34,464.918a.735.735,0,0,0-.582-.286H433.083l-.616-2.37a.736.736,0,0,0-.712-.551h-3.018a.736.736,0,1,0,0,1.472h2.448l.611,2.349c0,.014.007.029.011.044l2.272,8.739a.736.736,0,0,0,.712.551h10.688a.737.737,0,0,0,.713-.551l2.278-8.761a.738.738,0,0,0-.13-.635Zm-3.43,8.475h-9.549l-1.9-7.288h13.34Zm0,0"/>
  </g>
</svg>
