<?xml version="1.0" encoding="utf-8"?>
<!-- Generator: Adobe Illustrator 23.0.4, SVG Export Plug-In . SVG Version: 6.00 Build 0)  -->
<svg version="1.1" id="Layer_1" xmlns="http://www.w3.org/2000/svg" xmlns:xlink="http://www.w3.org/1999/xlink" x="0px" y="0px"
	 viewBox="0 0 140 50" style="enable-background:new 0 0 140 50;" xml:space="preserve">
<style type="text/css">
	.st0{fill:#E60019;}
</style>
<g id="Group_513" transform="translate(-58.614 -249.681)">
	<path id="Path_552" class="st0" d="M154.8,283.8v-18.2h0.3c3.2,0,6.3,0,9.5,0c1,0,1.9,0.1,2.8,0.4c1.5,0.4,2.6,1.7,2.7,3.3
		c0.1,0.7,0.1,1.5,0,2.2c-0.2,1.3-1.1,2.3-2.3,2.6l-0.5,0.2c0.3,0.1,0.6,0.2,0.8,0.3c1.2,0.4,2.1,1.5,2.3,2.8c0.2,1,0.2,1.9,0,2.9
		c-0.3,1.5-1.4,2.7-2.8,3.1c-0.9,0.3-1.8,0.4-2.8,0.4c-3.2,0-6.5,0-9.7,0C155,283.8,154.9,283.8,154.8,283.8z M159.9,276.3v3.3
		c1.3,0,2.6,0,3.9,0c0.8,0,1.4-0.6,1.4-1.4c0-0.3,0-0.5,0-0.8c0-0.6-0.5-1.1-1.1-1.1c-0.7-0.1-1.3,0-2-0.1
		C161.3,276.3,160.7,276.3,159.9,276.3z M159.9,269.8v2.9c0.1,0,0.2,0,0.2,0c1.1,0,2.2,0,3.3,0c0.7,0.1,1.4-0.5,1.5-1.2
		c0-0.1,0-0.1,0-0.2c0-0.8-0.3-1.5-1.2-1.6C162.5,269.7,161.2,269.8,159.9,269.8L159.9,269.8z"/>
	<path id="Path_553" class="st0" d="M102.1,274.7c-0.1,1.4-0.1,2.8-0.2,4.2c-0.1,0.6-0.2,1.3-0.4,1.8c-0.4,1.3-1.5,2.3-2.8,2.7
		c-1.2,0.4-2.4,0.6-3.6,0.6c-1.7,0.1-3.4,0-5-0.2c-0.6-0.1-1.2-0.2-1.8-0.4c-1.7-0.6-2.9-2-3.1-3.8c-0.2-1-0.3-2-0.3-3.1
		c0-1.5,0-3,0-4.5c0-1.1,0.2-2.1,0.5-3.1c0.4-1.5,1.7-2.7,3.2-3.1c1-0.3,2.1-0.5,3.2-0.5c1.7-0.1,3.5-0.1,5.2,0.2
		c0.6,0.1,1.2,0.2,1.7,0.4c1.6,0.6,2.8,2,3,3.6c0.2,1.2,0.3,2.4,0.3,3.6C102.1,273.7,102.1,274.2,102.1,274.7L102.1,274.7z
		 M90,274.7c0.1,1,0.1,2.1,0.2,3.1c0,1,0.8,1.9,1.8,2c1,0.2,1.9,0.2,2.9,0c0.8-0.1,1.5-0.7,1.7-1.4c0.1-0.4,0.2-0.7,0.2-1.1
		c0-1.3,0.1-2.5,0.1-3.8c0-0.7-0.1-1.4-0.2-2.1c-0.1-0.9-0.8-1.6-1.7-1.7c-1-0.2-2.1-0.2-3.1,0c-0.7,0.1-1.3,0.6-1.5,1.3
		c-0.1,0.2-0.2,0.5-0.2,0.7C90.1,272.7,90.1,273.7,90,274.7L90,274.7z"/>
	<path id="Path_554" class="st0" d="M135.4,283.8v-7h-6v7h-5.1v-18.1h5.1v6.6h6v-6.6h0.3c1.5,0,3,0,4.6,0c0.2,0,0.3,0.1,0.3,0.3
		c0,5.9,0,11.7,0,17.6c0,0.2,0,0.3-0.2,0.3c-1.6,0-3.1,0-4.7,0C135.6,283.8,135.5,283.8,135.4,283.8z"/>
	<path id="Path_555" class="st0" d="M120.5,271.3h-0.3c-1.4,0-2.9,0-4.3,0c-0.2,0-0.3-0.1-0.3-0.3c0-0.1,0-0.2,0-0.3
		c0-0.7-0.6-1.3-1.3-1.4c-0.9-0.2-1.9-0.2-2.8,0c-0.6,0-1.1,0.5-1.2,1c-0.3,0.8,0.1,1.7,0.9,2.1c0.2,0.1,0.4,0.1,0.6,0.1
		c1,0.1,2.1,0.1,3.1,0.2c1,0.1,2,0.2,3,0.5c1.5,0.3,2.7,1.6,3,3.1c0.3,1.4,0.3,2.8,0,4.1c-0.3,1.6-1.6,2.8-3.2,3.2
		c-1.1,0.3-2.1,0.4-3.2,0.4c-1.9,0.1-3.8,0-5.7-0.3c-0.5-0.1-0.9-0.2-1.4-0.5c-1-0.4-1.7-1.3-1.9-2.3c-0.2-1-0.3-2.1-0.2-3.1h4.8
		c0,0.2,0,0.4,0.1,0.6c0,0.8,0.6,1.5,1.4,1.5c1,0.2,2.1,0.2,3.1,0c0.9-0.2,1.5-1,1.3-1.9c-0.1-0.8-0.8-1.3-1.6-1.3
		c-1-0.1-2-0.1-2.9-0.2c-1.1,0-2.1-0.2-3.1-0.5c-1.5-0.4-2.7-1.7-2.9-3.3c-0.3-1.3-0.2-2.7,0.1-4c0.4-1.7,1.8-2.9,3.5-3.1
		c1.8-0.3,3.7-0.4,5.6-0.3c0.9,0,1.9,0.2,2.8,0.3c1.5,0.2,2.6,1.4,2.9,2.8C120.4,269.4,120.5,270.3,120.5,271.3z"/>
	<path id="Path_556" class="st0" d="M190.4,283.8h-0.3c-1.6,0-3.1,0-4.7,0c-0.2,0-0.3-0.1-0.4-0.3c-0.3-1-0.5-1.9-0.8-2.9
		c0-0.1-0.1-0.2-0.3-0.2c0,0,0,0,0,0c-1.8,0-3.7,0-5.5,0c-0.2,0-0.3,0.1-0.3,0.3c-0.3,0.9-0.5,1.9-0.8,2.8c-0.1,0.2-0.1,0.3-0.4,0.3
		c-1.6,0-3.2,0-4.7,0h-0.3c0.1-0.5,0.3-1,0.4-1.4c1.7-5.5,3.3-11,5-16.5c0-0.2,0.2-0.3,0.3-0.2c0,0,0,0,0,0c2.4,0,4.7,0,7.1,0
		c0.2,0,0.3,0.1,0.4,0.3c1.8,5.8,3.5,11.7,5.3,17.5C190.3,283.5,190.3,283.6,190.4,283.8z M182.9,276.4l-1.8-6.2l-0.1,0l-1.8,6.2
		L182.9,276.4z"/>
	<path id="Path_557" class="st0" d="M83.1,265.6v4.5h-5.4v13.6h-5.4v-13.6h-5.4c0-0.1,0-0.2,0-0.3c0-1.3,0-2.7,0-4
		c0-0.2,0.1-0.3,0.3-0.3c5.3,0,10.5,0,15.8,0C83,265.6,83,265.6,83.1,265.6z"/>
	<path id="Path_558" class="st0" d="M145.1,265.6c0.1,0,0.2,0,0.3,0c1.5,0,3.1,0,4.6,0c0.2,0,0.3,0.1,0.3,0.3c0,5.9,0,11.7,0,17.6
		c0,0.1,0,0.3-0.2,0.3c-1.6,0-3.2,0-4.8,0c0,0-0.1,0-0.1,0L145.1,265.6z"/>
</g>
</svg>
